dummy_motion.mot
nRows=37
nColumns=14

name dummy_motion.mot
datacolumns 14
datarows 37
range 37.5100000000 37.8700000000
endheader
time	first_body_list	first_body_rotation	first_body_tilt	first_body_tx	first_body_ty	first_body_tz	subtalar_angle_r	ankle_angle_r	knee_angle_r	hip_flexion_r	hip_adduction_r	hip_rotation_r	mtp_angle_r
       37.5100000000	        0.0000000000	        0.0000000000	        0.0000000000	        0.0000000000	        0.0000000000	        0.0000000000	        0.0000000000	       -3.3491306592	     -107.8404436310	      -48.9215921848	        1.9077117485	        9.5564355178	        0.0000000000	
       37.5200000000	        0.0000000000	        0.0000000000	        0.0000000000	        0.0000000000	        0.0000000000	        0.0000000000	        0.0000000000	       36.2290401064	      -10.2312775100	      -55.7105969793	      -39.4581682016	      -12.1122036434	        0.0000000000	
       37.5300000000	        0.0000000000	        0.0000000000	        0.0000000000	        0.0000000000	        0.0000000000	        0.0000000000	        0.0000000000	       23.4480206317	      -37.0216951183	       41.7170480520	      -18.7644296149	      -32.5614647438	        0.0000000000	
       37.5400000000	        0.0000000000	        0.0000000000	        0.0000000000	        0.0000000000	        0.0000000000	        0.0000000000	        0.0000000000	       18.1621727258	      -39.6639451207	        5.2208129444	       27.1756115310	        7.6643908229	        0.0000000000	
       37.5500000000	        0.0000000000	        0.0000000000	        0.0000000000	        0.0000000000	        0.0000000000	        0.0000000000	        0.0000000000	       40.5052475466	     -107.0408008089	       46.8234038090	       -2.1929592604	       31.7896749907	        0.0000000000	
       37.5600000000	        0.0000000000	        0.0000000000	        0.0000000000	        0.0000000000	        0.0000000000	        0.0000000000	        0.0000000000	      -21.9542547039	       -6.8215967526	       30.1838842220	      -19.0981289120	       22.5707433677	        0.0000000000	
       37.5700000000	        0.0000000000	        0.0000000000	        0.0000000000	        0.0000000000	        0.0000000000	        0.0000000000	        0.0000000000	        3.9339562775	      -60.8341924870	       73.2138300416	       29.3169103103	       23.0008308081	        0.0000000000	
       37.5800000000	        0.0000000000	        0.0000000000	        0.0000000000	        0.0000000000	        0.0000000000	        0.0000000000	        0.0000000000	      -59.6778511725	      -81.8807373646	       84.5080787228	      -26.0890598527	      -35.4346832701	        0.0000000000	
       37.5900000000	        0.0000000000	        0.0000000000	        0.0000000000	        0.0000000000	        0.0000000000	        0.0000000000	        0.0000000000	      -36.5201934120	      -57.2503396236	        4.2678422283	      -16.8454912549	      -39.4549943118	        0.0000000000	
       37.6000000000	        0.0000000000	        0.0000000000	        0.0000000000	        0.0000000000	        0.0000000000	        0.0000000000	        0.0000000000	      -50.1418688355	     -104.3874032043	      -36.7542834892	       26.5320602197	      -32.9788200970	        0.0000000000	
       37.6100000000	        0.0000000000	        0.0000000000	        0.0000000000	        0.0000000000	        0.0000000000	        0.0000000000	        0.0000000000	       -0.1392219991	      -12.0916819249	      -18.3188354935	      -14.0940445864	        0.8297951058	        0.0000000000	
       37.6200000000	        0.0000000000	        0.0000000000	        0.0000000000	        0.0000000000	        0.0000000000	        0.0000000000	        0.0000000000	      -12.0775641973	      -79.4425588488	       -0.5968588373	       22.5383456037	      -20.8265302813	        0.0000000000	
       37.6300000000	        0.0000000000	        0.0000000000	        0.0000000000	        0.0000000000	        0.0000000000	        0.0000000000	        0.0000000000	      -17.5299435777	      -25.7831299277	       30.8569254832	       24.7789075214	      -10.5610395602	        0.0000000000	
       37.6400000000	        0.0000000000	        0.0000000000	        0.0000000000	        0.0000000000	        0.0000000000	        0.0000000000	        0.0000000000	      -52.3185800027	       -2.6932473969	       66.0312541034	       25.6167652395	      -26.2540314055	        0.0000000000	
       37.6500000000	        0.0000000000	        0.0000000000	        0.0000000000	        0.0000000000	        0.0000000000	        0.0000000000	        0.0000000000	       50.0714318639	      -90.4310539067	      -65.0701340836	      -28.5864317721	       38.9164280587	        0.0000000000	
       37.6600000000	        0.0000000000	        0.0000000000	        0.0000000000	        0.0000000000	        0.0000000000	        0.0000000000	        0.0000000000	       29.5971965519	      -49.7586658118	      115.5557284439	      -34.8455029421	       -1.1597784418	        0.0000000000	
       37.6700000000	        0.0000000000	        0.0000000000	        0.0000000000	        0.0000000000	        0.0000000000	        0.0000000000	        0.0000000000	      -16.5320862267	      -88.6613164318	        0.6773249224	      -22.5946571728	       21.9459773715	        0.0000000000	
       37.6800000000	        0.0000000000	        0.0000000000	        0.0000000000	        0.0000000000	        0.0000000000	        0.0000000000	        0.0000000000	       32.5670576369	      -69.6975663563	        6.4881363386	       -8.9743859112	      -20.3181041668	        0.0000000000	
       37.6900000000	        0.0000000000	        0.0000000000	        0.0000000000	        0.0000000000	        0.0000000000	        0.0000000000	        0.0000000000	       21.8977812432	      -27.7444366525	       63.9835071637	      -38.1906891223	      -37.1743660461	        0.0000000000	
       37.7000000000	        0.0000000000	        0.0000000000	        0.0000000000	        0.0000000000	        0.0000000000	        0.0000000000	        0.0000000000	       50.8141490026	      -11.6698952987	      110.2831668749	      -39.9677654481	       -0.6596372727	        0.0000000000	
       37.7100000000	        0.0000000000	        0.0000000000	        0.0000000000	        0.0000000000	        0.0000000000	        0.0000000000	        0.0000000000	       52.0415658634	      -85.6114820651	        6.2407991771	       12.3440221261	       -5.2912060708	        0.0000000000	
       37.7200000000	        0.0000000000	        0.0000000000	        0.0000000000	        0.0000000000	        0.0000000000	        0.0000000000	        0.0000000000	      -38.5035667154	      -28.0925836575	      -33.1719036891	      -32.7244171488	      -34.7609626964	        0.0000000000	
       37.7300000000	        0.0000000000	        0.0000000000	        0.0000000000	        0.0000000000	        0.0000000000	        0.0000000000	        0.0000000000	       39.8851610016	       -2.3690700037	      -20.4114259428	      -31.4904920915	       -3.0265980549	        0.0000000000	
       37.7400000000	        0.0000000000	        0.0000000000	        0.0000000000	        0.0000000000	        0.0000000000	        0.0000000000	        0.0000000000	       -1.8930057835	      -31.6879637547	       66.6565300920	       30.0712097390	       -2.1552981801	        0.0000000000	
       37.7500000000	        0.0000000000	        0.0000000000	        0.0000000000	        0.0000000000	        0.0000000000	        0.0000000000	        0.0000000000	       31.1943128528	      -58.5833917910	       27.0794674299	       -8.7879972347	      -18.0270393253	        0.0000000000	
       37.7600000000	        0.0000000000	        0.0000000000	        0.0000000000	        0.0000000000	        0.0000000000	        0.0000000000	        0.0000000000	       46.9226087867	     -108.7216027652	      -16.7719283808	       20.2648473049	      -27.1247035831	        0.0000000000	
       37.7700000000	        0.0000000000	        0.0000000000	        0.0000000000	        0.0000000000	        0.0000000000	        0.0000000000	        0.0000000000	        9.8324587265	      -20.6255402110	      -64.4459348516	       27.3416885029	      -14.8454510336	        0.0000000000	
       37.7800000000	        0.0000000000	        0.0000000000	        0.0000000000	        0.0000000000	        0.0000000000	        0.0000000000	        0.0000000000	      -32.9234580837	      -15.8430319108	      -52.1980060610	        5.9427563657	       -0.5603063418	        0.0000000000	
       37.7900000000	        0.0000000000	        0.0000000000	        0.0000000000	        0.0000000000	        0.0000000000	        0.0000000000	        0.0000000000	      -10.1467981793	      -16.3811995423	      -22.9810642006	      -22.2773241856	       -1.8971999146	        0.0000000000	
       37.8000000000	        0.0000000000	        0.0000000000	        0.0000000000	        0.0000000000	        0.0000000000	        0.0000000000	        0.0000000000	      -29.9471871877	     -110.4021330092	      -57.4892707830	       34.1559154294	        7.8314241864	        0.0000000000	
       37.8100000000	        0.0000000000	        0.0000000000	        0.0000000000	        0.0000000000	        0.0000000000	        0.0000000000	        0.0000000000	      -54.6249016666	     -102.2975097888	       -2.9381979015	       38.4376654827	        5.4052122405	        0.0000000000	
       37.8200000000	        0.0000000000	        0.0000000000	        0.0000000000	        0.0000000000	        0.0000000000	        0.0000000000	        0.0000000000	       21.9684840376	      -31.3741215848	      -37.8811076130	       15.1592289635	       18.4231019605	        0.0000000000	
       37.8300000000	        0.0000000000	        0.0000000000	        0.0000000000	        0.0000000000	        0.0000000000	        0.0000000000	        0.0000000000	        2.9139342480	      -19.1447530306	       65.4813937125	      -34.4154733318	      -25.2412807729	        0.0000000000	
       37.8400000000	        0.0000000000	        0.0000000000	        0.0000000000	        0.0000000000	        0.0000000000	        0.0000000000	        0.0000000000	       22.5923262112	      -84.4614892718	       25.1061646334	       16.8660770267	       33.2030782389	        0.0000000000	
       37.8500000000	        0.0000000000	        0.0000000000	        0.0000000000	        0.0000000000	        0.0000000000	        0.0000000000	        0.0000000000	       49.9701895857	     -110.8479958578	      -62.2383253624	       -9.6074414128	       11.3724717575	        0.0000000000	
       37.8600000000	        0.0000000000	        0.0000000000	        0.0000000000	        0.0000000000	        0.0000000000	        0.0000000000	        0.0000000000	      -50.8004755985	      -69.3542966601	      -65.3104250800	       23.8444187295	       -0.6232460215	        0.0000000000	
       37.8700000000	        0.0000000000	        0.0000000000	        0.0000000000	        0.0000000000	        0.0000000000	        0.0000000000	        0.0000000000	       50.3406155150	       -3.8791830637	      117.2744513330	       26.8326493002	       19.1180329482	        0.0000000000	
